# xmcd
#
# Track frame offsets: 
#        150
#        11317
#        21152
#        30003
#        40704
#        50164
#        61520
#        72931
#        83768
#        95292
#
# Disc length: 1400 seconds
#
# Revision: 0
# Processed by: cddbd v1.5.2PL0 Copyright (c) Steve Scherf et al.
# Submitted via: ExactAudioCopyFreeDBPlugin 1.0
#
DISCID=6605760a
DTITLE=Various Artist - Country Classics: Hits Of 1960
DYEAR=1999
DGENRE=Country
TTITLE0=Don Gibson - Just One Time
TTITLE1=Hank Locklin - Please Help Me I'm Falling
TTITLE2=Bob Luman - Let's Think About Living
TTITLE3=Ferlin Husky - Wings Of A Dove
TTITLE4=Bob Gallion - Loving You (Was Worth This Broken Heart)
TTITLE5=Roy Drusky - Anymore
TTITLE6=Jimmy C. Newman - A Lovely Work Of Art
TTITLE7=Warren Smith - I Don't Belive I'll Fall In Love Today
TTITLE8=Kitty Wells - Left To Right
TTITLE9=Stonewall Jackson - Why I'm Walkin'
EXTD=
EXTT0=
EXTT1=
EXTT2=
EXTT3=
EXTT4=
EXTT5=
EXTT6=
EXTT7=
EXTT8=
EXTT9=
PLAYORDER=
